<svg xmlns="http://www.w3.org/2000/svg" width="217.775" height="49.938" viewBox="0 0 217.775 49.938"><defs><style>.a{fill:#fff;}.b{fill:#f1583e;}</style></defs><path class="a" d="M32.048,26.788c-2.668-2.46-6.584-4.367-11.644-5.614-3.881-.97-6.688-2.114-8.386-3.362a4.97,4.97,0,0,1-2.253-4.124,5.767,5.767,0,0,1,2.079-4.644c1.456-1.213,3.6-1.837,6.446-1.837,3.05,0,5.372.728,6.931,2.218a7.471,7.471,0,0,1,2.322,5.753v1.109h7.1l.866-.208.277-.762.069-.347A13.405,13.405,0,0,0,31.147,4.436C28.028,1.49,23.7,0,18.359,0,13.4,0,9.28,1.317,6.126,3.881a12.4,12.4,0,0,0-4.852,9.946,11.827,11.827,0,0,0,4.54,9.461A28.859,28.859,0,0,0,17.736,28.66c3.847.936,6.515,2.045,7.971,3.327a5.689,5.689,0,0,1,2.01,4.436,5.208,5.208,0,0,1-2.287,4.47,11.62,11.62,0,0,1-6.862,1.767,12.7,12.7,0,0,1-7.451-2.114A6.724,6.724,0,0,1,8.309,34.69V33.615h-7.1l-.866.208L.1,34.586l-.1.347a12.48,12.48,0,0,0,5.649,11.02,21.976,21.976,0,0,0,12.926,3.985c5.164,0,9.391-1.213,12.649-3.639a11.852,11.852,0,0,0,5.025-9.911A12.6,12.6,0,0,0,32.048,26.788Z" transform="translate(0.012)"/><path class="a" d="M126.414,1.9h-6.931L100.7,50.486h8.837l4.4-11.921h17.813l4.332,11.921h8.837Zm2.634,29.145H116.711l6.238-16.912Z" transform="translate(-65.798 -1.242)"/><rect class="a" width="8.56" height="48.586" transform="translate(80.403 0.658)"/><g transform="translate(97.35 1.802)"><path class="a" d="M290.177,19.523h-3.05v9.738H286.4V9.3h.728v9.461h3.258L298.841,9.3h.866l.035.069-8.733,9.877,9.391,9.911-.035.069H299.5Z" transform="translate(-284.494 -7.879)"/><path class="a" d="M334.628,7.106H333.9V5.2h.728Zm0,19.476H333.9V11.75h.728Z" transform="translate(-315.533 -5.2)"/><path class="a" d="M344.665,12.6v3.985H348.3v.762h-3.639V27.606a4.208,4.208,0,0,0,.624,2.6,1.987,1.987,0,0,0,1.629.762,3.979,3.979,0,0,0,.658-.035c.208-.035.451-.035.8-.1l.139.658a2.466,2.466,0,0,1-.728.139,6.142,6.142,0,0,1-.832.035,2.617,2.617,0,0,1-2.253-.97,5.039,5.039,0,0,1-.762-3.119V17.348H341.2v-.762h2.738V12.6Z" transform="translate(-320.303 -10.036)"/><path class="a" d="M371.73,37.828a5.58,5.58,0,0,0,3.327-1.04,3.494,3.494,0,0,0,1.421-3.084h.624l.035.069a4.015,4.015,0,0,1-1.594,3.465,5.962,5.962,0,0,1-3.812,1.282,5.339,5.339,0,0,1-4.436-2.045,8.4,8.4,0,0,1-1.594-5.372v-.589a8.466,8.466,0,0,1,1.594-5.372A5.339,5.339,0,0,1,371.73,23.1a5.757,5.757,0,0,1,3.881,1.352,4.42,4.42,0,0,1,1.525,3.812l-.035.069h-.624a4.031,4.031,0,0,0-1.386-3.327,5.161,5.161,0,0,0-3.4-1.144,4.567,4.567,0,0,0-3.951,1.871,7.967,7.967,0,0,0-1.352,4.782v.589a8.005,8.005,0,0,0,1.352,4.817A4.532,4.532,0,0,0,371.73,37.828Z" transform="translate(-336.313 -16.897)"/><path class="a" d="M407.228,14.869a5.561,5.561,0,0,1,2.01-2.5,5.8,5.8,0,0,1,3.258-.9,4.237,4.237,0,0,1,3.5,1.456,7.26,7.26,0,0,1,1.213,4.609v9.01h-.762v-9.01c0-1.941-.347-3.327-1.074-4.124A3.689,3.689,0,0,0,412.5,12.2a4.75,4.75,0,0,0-3.673,1.421,6.994,6.994,0,0,0-1.594,3.673v9.253H406.5V5.2h.728Z" transform="translate(-362.974 -5.2)"/><path class="a" d="M450.4,38.752a5.686,5.686,0,0,1-4.367-2.045,7.354,7.354,0,0,1-1.837-5.094v-.866a7.87,7.87,0,0,1,1.767-5.268,5.578,5.578,0,0,1,4.4-2.079,5.481,5.481,0,0,1,4.089,1.629,6.175,6.175,0,0,1,1.594,4.4v1.144h-11.09v1.04a6.815,6.815,0,0,0,1.559,4.54,4.9,4.9,0,0,0,3.916,1.871,7.142,7.142,0,0,0,2.772-.451,5.317,5.317,0,0,0,1.906-1.352l.381.589a5.27,5.27,0,0,1-2.114,1.456A8.809,8.809,0,0,1,450.4,38.752Zm-.069-14.659a4.756,4.756,0,0,0-3.673,1.594A6.7,6.7,0,0,0,445,29.707l.035.069h10.223v-.451a5.213,5.213,0,0,0-1.386-3.743A4.523,4.523,0,0,0,450.334,24.093Z" transform="translate(-387.609 -17.093)"/><path class="a" d="M485.624,23.577l.1,3.05a5.4,5.4,0,0,1,1.975-2.46,5.481,5.481,0,0,1,3.188-.866,4.371,4.371,0,0,1,3.639,1.525,7.849,7.849,0,0,1,1.213,4.852V38.41h-.728V29.642c0-2.045-.381-3.5-1.109-4.332a3.772,3.772,0,0,0-2.98-1.248,4.5,4.5,0,0,0-3.6,1.421,7.217,7.217,0,0,0-1.525,3.673V38.41H485V23.577Z" transform="translate(-414.269 -17.027)"/><path class="a" d="M544.128,17.653a12.18,12.18,0,0,1-1.663-2.564,5.872,5.872,0,0,1-.52-2.426,4.37,4.37,0,0,1,1.109-3.154A4.168,4.168,0,0,1,546.1,8.4a3.79,3.79,0,0,1,2.807.97,3.5,3.5,0,0,1,.97,2.6,3.449,3.449,0,0,1-.52,1.941,6.88,6.88,0,0,1-1.49,1.559L545.1,17.688l6.515,7.381a8.751,8.751,0,0,0,1.144-2.357,9.162,9.162,0,0,0,.416-2.807h.762a9.814,9.814,0,0,1-.485,3.119,8.652,8.652,0,0,1-1.352,2.564l2.53,2.876-.035.069h-.8l-2.149-2.426-.1.1-.069.069a11.223,11.223,0,0,1-2.564,1.871,6.685,6.685,0,0,1-3.05.658,6.412,6.412,0,0,1-4.366-1.386,4.608,4.608,0,0,1-1.594-3.743,4.836,4.836,0,0,1,.936-2.876,15.366,15.366,0,0,1,2.564-2.738Zm1.733,10.57a6.364,6.364,0,0,0,2.876-.658,7.375,7.375,0,0,0,2.426-1.871l-6.134-6.966a1.5,1.5,0,0,1-.208-.243,3.347,3.347,0,0,1-.243-.312l-.728.554a11.538,11.538,0,0,0-2.53,2.807,4.605,4.605,0,0,0-.658,2.253,4.173,4.173,0,0,0,1.352,3.119A5.334,5.334,0,0,0,545.861,28.223Zm-3.188-15.56a5.829,5.829,0,0,0,.485,2.218,9.464,9.464,0,0,0,1.49,2.357l2.876-2.287a5.01,5.01,0,0,0,1.213-1.421A3.423,3.423,0,0,0,549.118,12a2.8,2.8,0,0,0-.762-2.079,3.02,3.02,0,0,0-2.253-.8,3.212,3.212,0,0,0-2.53,1A3.766,3.766,0,0,0,542.672,12.663Z" transform="translate(-450.144 -7.291)"/><path class="a" d="M285.856,95.621l.866,3.154h.069l.866-3.154L292.371,80.2h.832l4.678,15.421.832,3.154h.069l.9-3.154L303.807,80.2h.8l-5.371,19.927H298.4l-4.956-16.634-.658-1.975h-.069l-.624,1.975-4.99,16.634h-.832L280.9,80.2h.832Z" transform="translate(-280.9 -54.209)"/><path class="a" d="M361.2,106.472a5.8,5.8,0,0,1-2.287,2.183,7.57,7.57,0,0,1-3.673.832,4.5,4.5,0,0,1-3.258-1.144,4,4,0,0,1-1.178-3.05,3.707,3.707,0,0,1,1.767-3.119,7.418,7.418,0,0,1,4.4-1.248H361.2V98.778a3.568,3.568,0,0,0-1.178-2.876,5.84,5.84,0,0,0-6.55-.069,3.02,3.02,0,0,0-1.213,2.5l-.624-.035-.035-.069a3.355,3.355,0,0,1,1.352-2.911,6.542,6.542,0,0,1,7.589,0,4.235,4.235,0,0,1,1.421,3.465v7.416a10.9,10.9,0,0,0,.1,1.525c.069.485.173.97.277,1.456h-.832c-.1-.658-.208-1.144-.243-1.456a9.217,9.217,0,0,1-.069-1.04Zm-5.961,2.322a6.844,6.844,0,0,0,3.743-.97,5.786,5.786,0,0,0,2.253-2.772v-3.362h-4.193a6.647,6.647,0,0,0-3.881,1.074,3.147,3.147,0,0,0-1.594,2.634,3.317,3.317,0,0,0,1.005,2.46A3.74,3.74,0,0,0,355.236,108.794Z" transform="translate(-326.576 -63.292)"/><path class="a" d="M400.015,95.062l-.97-.069a4.256,4.256,0,0,0-3.223,1.282,6.241,6.241,0,0,0-1.594,3.362v9.7H393.5v-14.8h.589l.139,2.564v.52a5.152,5.152,0,0,1,1.837-2.46,4.929,4.929,0,0,1,3.015-.866,3.171,3.171,0,0,1,.589.035,4.517,4.517,0,0,1,.451.1Z" transform="translate(-354.479 -63.423)"/><path class="a" d="M414.4,90.031a9.194,9.194,0,0,1,1.49-5.579,4.752,4.752,0,0,1,4.124-2.079,5.48,5.48,0,0,1,5.025,2.946V76.1h.728V97.447h-.728L425,95.16a5.426,5.426,0,0,1-2.045,1.906,6.449,6.449,0,0,1-3.015.693,4.757,4.757,0,0,1-4.089-2.01,9.01,9.01,0,0,1-1.456-5.406Zm.762.277a8.788,8.788,0,0,0,1.213,4.886,4,4,0,0,0,3.569,1.8,5.6,5.6,0,0,0,3.223-.866,5.051,5.051,0,0,0,1.871-2.357V86.843a6.061,6.061,0,0,0-1.733-2.668,4.746,4.746,0,0,0-3.327-1.074,3.97,3.97,0,0,0-3.569,1.941,9.027,9.027,0,0,0-1.213,4.99v.277Z" transform="translate(-368.136 -51.53)"/><path class="a" d="M464.015,95.062l-.97-.069a4.256,4.256,0,0,0-3.223,1.282,6.241,6.241,0,0,0-1.594,3.362v9.7H457.5v-14.8h.589l.139,2.564v.52a5.152,5.152,0,0,1,1.837-2.46,4.929,4.929,0,0,1,3.015-.866,3.171,3.171,0,0,1,.589.035,4.518,4.518,0,0,1,.451.1Z" transform="translate(-396.3 -63.423)"/><path class="a" d="M476.835,101.516a7.779,7.779,0,0,1,1.8-5.337,5.933,5.933,0,0,1,4.678-2.079,5.836,5.836,0,0,1,4.678,2.079,7.779,7.779,0,0,1,1.8,5.337v.589a7.779,7.779,0,0,1-1.8,5.337,6.342,6.342,0,0,1-9.391,0,7.779,7.779,0,0,1-1.8-5.337v-.589Zm.762.589a7.383,7.383,0,0,0,1.559,4.748,5.463,5.463,0,0,0,8.352,0,7.286,7.286,0,0,0,1.559-4.713v-.589a7.257,7.257,0,0,0-1.559-4.678,5.05,5.05,0,0,0-4.193-1.975,5.141,5.141,0,0,0-4.193,1.975,7.324,7.324,0,0,0-1.559,4.678v.554Z" transform="translate(-408.911 -63.292)"/><path class="a" d="M532.567,90.308a8.711,8.711,0,0,1-1.49,5.406,4.842,4.842,0,0,1-4.089,2.01,6.493,6.493,0,0,1-3.05-.693,5.084,5.084,0,0,1-2.01-1.906l-.1,2.322H521.2V76.1h.728v9.184a5.48,5.48,0,0,1,5.025-2.946,4.733,4.733,0,0,1,4.089,2.079A9.335,9.335,0,0,1,532.532,90v.312Zm-.762-.277a9.027,9.027,0,0,0-1.248-4.99,4.009,4.009,0,0,0-3.569-1.941,4.689,4.689,0,0,0-3.327,1.074,6,6,0,0,0-1.7,2.668v6.931a4.938,4.938,0,0,0,1.837,2.357,5.6,5.6,0,0,0,3.223.866,4.041,4.041,0,0,0,3.569-1.8,8.788,8.788,0,0,0,1.213-4.886Z" transform="translate(-437.924 -51.53)"/><path class="a" d="M565.3,109.652a5.686,5.686,0,0,1-4.367-2.045,7.354,7.354,0,0,1-1.837-5.094v-.866a7.871,7.871,0,0,1,1.767-5.268,5.578,5.578,0,0,1,4.4-2.079,5.481,5.481,0,0,1,4.089,1.629,6.175,6.175,0,0,1,1.594,4.4v1.144h-11.09v1.04a6.815,6.815,0,0,0,1.56,4.54,4.9,4.9,0,0,0,3.916,1.871,7.143,7.143,0,0,0,2.772-.451,5.317,5.317,0,0,0,1.906-1.352l.381.589a5.27,5.27,0,0,1-2.114,1.456A8.665,8.665,0,0,1,565.3,109.652Zm-.035-14.659a4.756,4.756,0,0,0-3.673,1.594,6.7,6.7,0,0,0-1.663,4.02l.035.069H570.19v-.451a5.213,5.213,0,0,0-1.386-3.743A4.626,4.626,0,0,0,565.269,94.993Z" transform="translate(-462.69 -63.423)"/><path class="a" d="M607.564,105.605a2.979,2.979,0,0,0-1.005-2.149,7.353,7.353,0,0,0-3.5-1.525,9.9,9.9,0,0,1-3.812-1.456,3.04,3.04,0,0,1-1.178-2.634,3.284,3.284,0,0,1,1.352-2.668,5.582,5.582,0,0,1,3.6-1.074,5.919,5.919,0,0,1,3.847,1.144,3.56,3.56,0,0,1,1.352,3.015l-.035.069h-.624a3.1,3.1,0,0,0-1.213-2.46,5.018,5.018,0,0,0-3.327-1,4.885,4.885,0,0,0-3.154.9,2.6,2.6,0,0,0-1.074,2.079,2.641,2.641,0,0,0,.9,1.975,8.028,8.028,0,0,0,3.6,1.421,9.486,9.486,0,0,1,3.743,1.559,3.283,3.283,0,0,1,1.282,2.772,3.372,3.372,0,0,1-1.421,2.807,6.036,6.036,0,0,1-3.777,1.074,6.413,6.413,0,0,1-4.055-1.144,3.209,3.209,0,0,1-1.386-2.807l.035-.069h.589a2.928,2.928,0,0,0,1.49,2.53,6.708,6.708,0,0,0,3.292.8,4.937,4.937,0,0,0,3.258-.97A2.747,2.747,0,0,0,607.564,105.605Z" transform="translate(-487.901 -63.292)"/></g><path class="b" d="M224.4,108.4" transform="translate(-146.63 -70.834)"/><path class="b" d="M197.935,38.807V1.9H183.9l14.035,36.907" transform="translate(-120.166 -1.242)"/></svg>