<svg xmlns="http://www.w3.org/2000/svg" width="24" height="24" viewBox="0 0 24 24"><defs><style>.a{fill:none;}.b{fill:#ac968e;fill-rule:evenodd;}.c{fill:#8d6c61;}</style></defs><rect class="a" width="24" height="24"/><path class="b" d="M9,10v9l1.153.384A12,12,0,0,0,13.947,20h3.593a3,3,0,0,0,2.942-2.412l.749-3.746a3,3,0,0,0-3.141-3.582L14.5,10.5l.364-4.006a1.37,1.37,0,0,0-1.24-1.488Q13.562,5,13.5,5h0a2.649,2.649,0,0,0-2.272,1.286Z"/><rect class="c" width="5" height="11" rx="1" transform="translate(2 9)"/></svg>