<svg xmlns="http://www.w3.org/2000/svg" width="24" height="24" viewBox="0 0 24 24"><defs><style>.a{fill:none;}.b{fill:#ac968e;}.b,.c{fill-rule:evenodd;}.c{fill:#8d6c61;}</style></defs><rect class="a" width="24" height="24"/><path class="b" d="M14.112,7.006A1.011,1.011,0,0,0,14,7H10a1.011,1.011,0,0,0-.112.006L7.348,4.558A1,1,0,0,1,7.32,3.146L8.419,2h7.161l1.1,1.146a1,1,0,0,1-.028,1.412Z"/><path class="c" d="M13.764,9l1.721,9.149a1,1,0,0,1-.261.877l-2.5,2.608-.029.029a1,1,0,0,1-1.414-.029l-2.5-2.608a1,1,0,0,1-.261-.877L10.236,9Z"/></svg>