<svg xmlns="http://www.w3.org/2000/svg" width="24" height="24" viewBox="0 0 24 24"><defs><style>.a{fill:none;}.b{fill:#ac968e;fill-rule:evenodd;}</style></defs><rect class="a" width="24" height="24"/><path class="b" d="M22,15.01l.025-.01v4.586a1,1,0,0,1-1.707.707L18.025,18H5a3,3,0,0,1-3-3V6A3,3,0,0,1,5,3H19a3,3,0,0,1,3,3v9S22,15.007,22,15.01ZM6.168,10.555A6.862,6.862,0,0,0,12,14a6.862,6.862,0,0,0,5.832-3.445,1,1,0,1,0-1.664-1.109A4.894,4.894,0,0,1,12,12,4.894,4.894,0,0,1,7.832,9.445a1,1,0,1,0-1.664,1.109Z"/></svg>