<svg xmlns="http://www.w3.org/2000/svg" width="22" height="22" viewBox="0 0 22 22"><defs><style>.a{fill:none;fill-rule:evenodd;}.b{fill:#a58a81;opacity:0.489;}.c{fill:#fff;opacity:0.399;}</style></defs><path class="a" d="M0,0H22V22H0Z"/><path class="b" d="M16.917,13.083a2.75,2.75,0,1,1,2.75-2.75A2.75,2.75,0,0,1,16.917,13.083Zm-8.25-2.75a3.667,3.667,0,1,1,3.667-3.667A3.667,3.667,0,0,1,8.667,10.333Z" transform="translate(-0.417 -0.25)"/><path class="c" d="M16.134,14.834c3.123.034,5.672,1.613,5.864,4.949a.467.467,0,0,1-.5.55H17.967A9.126,9.126,0,0,0,16.134,14.834ZM0,19.6C.356,15.224,3.907,13,8.235,13c4.389,0,7.995,2.1,8.263,6.6a.63.63,0,0,1-.689.733H.667A1.015,1.015,0,0,1,0,19.6Z" transform="translate(0 -1.083)"/></svg>