<svg xmlns="http://www.w3.org/2000/svg" width="24" height="24" viewBox="0 0 24 24"><defs><style>.a{fill:none;}.b{fill:#ac968e;}.c{fill:#8d6c61;fill-rule:evenodd;}</style></defs><rect class="a" width="24" height="24"/><rect class="b" width="7" height="7" rx="1.5" transform="translate(4 4)"/><path class="c" d="M5.5,13h4A1.5,1.5,0,0,1,11,14.5v4A1.5,1.5,0,0,1,9.5,20h-4A1.5,1.5,0,0,1,4,18.5v-4A1.5,1.5,0,0,1,5.5,13Zm9-9h4A1.5,1.5,0,0,1,20,5.5v4A1.5,1.5,0,0,1,18.5,11h-4A1.5,1.5,0,0,1,13,9.5v-4A1.5,1.5,0,0,1,14.5,4Zm0,9h4A1.5,1.5,0,0,1,20,14.5v4A1.5,1.5,0,0,1,18.5,20h-4A1.5,1.5,0,0,1,13,18.5v-4A1.5,1.5,0,0,1,14.5,13Z"/></svg>