<svg xmlns="http://www.w3.org/2000/svg" width="24" height="24" viewBox="0 0 24 24"><defs><style>.a{fill:none;}.a,.b,.c{fill-rule:evenodd;}.b{fill:#8d6c61;opacity:0.564;}.c{fill:#ac968e;}</style></defs><path class="a" d="M0,0H24V24H0Z"/><path class="b" d="M22,15v4a2,2,0,0,1-2,2H8a4,4,0,0,1,0-8H20A2,2,0,0,1,22,15ZM7,19a2,2,0,1,0-2-2A2,2,0,0,0,7,19Z"/><path class="b" d="M15.542,5.7l2.828,2.828a2,2,0,0,1,0,2.828L9.885,19.842a4,4,0,0,1-5.657-5.657L12.714,5.7A2,2,0,0,1,15.542,5.7ZM7,19a2,2,0,1,0-2-2A2,2,0,0,0,7,19Z"/><path class="c" d="M5,3H9a2,2,0,0,1,2,2V17a4,4,0,0,1-8,0V5A2,2,0,0,1,5,3ZM7,19a2,2,0,1,0-2-2A2,2,0,0,0,7,19Z"/></svg>