<svg xmlns="http://www.w3.org/2000/svg" width="24" height="24" viewBox="0 0 24 24"><defs><style>.a{fill:none;}.b{fill:#8d6c61;}.b,.c{fill-rule:evenodd;}.c{fill:#ac968e;}</style></defs><rect class="a" width="24" height="24"/><path class="b" d="M3,16H5a1,1,0,0,0,0-2H3V12H5a1,1,0,0,0,0-2H3V8H5A1,1,0,0,0,5,6H3V4A1,1,0,0,1,4,3h6a1,1,0,0,1,1,1V19a1,1,0,0,1-1,1H4a1,1,0,0,1-1-1Z"/><path class="c" d="M16,3h3a2,2,0,0,1,2,2V15.249a2,2,0,0,1-.495,1.317l-2.629,3a.5.5,0,0,1-.753,0l-2.629-3A2,2,0,0,1,14,15.249V5A2,2,0,0,1,16,3Z"/></svg>