<svg xmlns="http://www.w3.org/2000/svg" xmlns:xlink="http://www.w3.org/1999/xlink" width="46" height="47.588" viewBox="0 0 46 47.588"><defs><style>.a{fill:url(#a);}.b{fill:url(#b);}.c{filter:url(#f);}.d{filter:url(#c);}</style><linearGradient id="a" x1="0.175" y1="0.5" x2="0.588" gradientUnits="objectBoundingBox"><stop offset="0" stop-color="#f1583e"/><stop offset="1" stop-color="#f7806c"/></linearGradient><linearGradient id="b" x1="0.5" y1="0.5" x2="0.5" y2="1" gradientUnits="objectBoundingBox"><stop offset="0" stop-color="#fff"/><stop offset="1" stop-color="#e8e8e8"/></linearGradient><filter id="c" x="9" y="4" width="28" height="28" filterUnits="userSpaceOnUse"><feOffset dy="3" input="SourceAlpha"/><feGaussianBlur stdDeviation="3" result="d"/><feFlood flood-opacity="0.161"/><feComposite operator="in" in2="d"/><feComposite in="SourceGraphic"/></filter><filter id="f" x="2.867" y="14.276" width="40.267" height="33.312" filterUnits="userSpaceOnUse"><feOffset dy="3" input="SourceAlpha"/><feGaussianBlur stdDeviation="3" result="g"/><feFlood flood-opacity="0.161"/><feComposite operator="in" in2="g"/><feComposite in="SourceGraphic"/></filter></defs><g transform="translate(-437 -1995)"><rect class="a" width="46" height="46" rx="13" transform="translate(437 1995)"/><g class="d" transform="matrix(1, 0, 0, 1, 437, 1995)"><circle class="b" cx="5" cy="5" r="5" transform="translate(18 10)"/></g><g class="c" transform="matrix(1, 0, 0, 1, 437, 1995)"><path class="b" d="M11.134,0A11.134,11.134,0,0,1,22.267,11.134c0,3.038-.8,4.179-11.134,4.179C.709,15.312,0,14.245,0,11.134A11.134,11.134,0,0,1,11.134,0Z" transform="translate(11.87 20.28)"/></g></g></svg>