<svg xmlns="http://www.w3.org/2000/svg" width="24.195" height="24" viewBox="0 0 24.195 24"><defs><style>.a{fill:none;}.b{fill:#8d6c61;}.b,.c{fill-rule:evenodd;}.c{fill:#ac968e;}</style></defs><g transform="translate(0.195)"><rect class="a" width="24" height="24"/><path class="b" d="M2,6H21a1,1,0,0,1,1,1V17a1,1,0,0,1-1,1H2a1,1,0,0,1-1-1V7A1,1,0,0,1,2,6Zm9.5,10a4,4,0,1,0-4-4A4,4,0,0,0,11.5,16Z" transform="matrix(0.966, 0.259, -0.259, 0.966, 3.498, -2.568)"/><path class="c" d="M2,6H21a1,1,0,0,1,1,1V17a1,1,0,0,1-1,1H2a1,1,0,0,1-1-1V7A1,1,0,0,1,2,6Zm9.5,10a4,4,0,1,0-4-4A4,4,0,0,0,11.5,16Zm0-2a2,2,0,1,0-2-2A2,2,0,0,0,11.5,14Z"/></g></svg>