<svg xmlns="http://www.w3.org/2000/svg" width="63" height="63" viewBox="0 0 63 63"><defs><style>.a{fill:#fff6f0;}.b{fill:#f1583e;}</style></defs><g transform="translate(-919 -1935)"><rect class="a" width="63" height="63" rx="8" transform="translate(919 1935)"/><g transform="translate(935.708 1916.488)"><g transform="translate(0 37.989)"><path class="b" d="M29.5,52.635a.583.583,0,0,0-.284-.246L27.1,51.521l2.2-1.294a.583.583,0,0,0-.076-1.043L27.1,48.315l2.2-1.294a.591.591,0,0,0-.082-1.049l-8.353-3.421L16.745,40.8a.583.583,0,0,0-.21-.041l-6.7-2.728a.583.583,0,0,0-.507.029L.343,43.11A.583.583,0,0,0,.4,44.177l2.168.9L.343,46.316A.583.583,0,0,0,.4,47.359l2.168.9L.355,49.5A.583.583,0,0,0,.4,50.588l2.168.892L.355,52.722a.583.583,0,0,0,.058,1.043l7.537,3.2a.578.578,0,0,0,.087.052l4.121,1.749,7.577,3.223a.583.583,0,0,0,.525-.035l9.035-5.316a.583.583,0,0,0-.076-1.043L27.1,54.727l2.2-1.294A.583.583,0,0,0,29.5,52.635Zm-1.817-2.828-7.77,4.576-6.948-2.949V49.493l6.761,2.874a.58.58,0,0,0,.525-.035l5.578-3.282Zm.023-3.212-7.793,4.576L13.6,48.49l7.111-4.75ZM7.664,55.59,1.946,53.159l1.964-1.1,3.76,1.6Zm0-3.206L1.946,49.953,3.91,48.84l3.76,1.6Zm0-3.206L1.946,46.753l1.964-1.1,3.76,1.6ZM1.946,43.547l7.706-4.331,5.59,2.291L8.2,46.205Zm10.113,4.581a.583.583,0,0,0-.256.484v8.743L8.836,56.1V47.185l7.723-5.147L19.432,43.2Zm15.627,8.09-7.77,4.57L12.968,57.84V55.9l6.761,2.844a.583.583,0,0,0,.525-.035l5.578-3.282Zm-7.77,1.364-6.948-2.949V52.7l6.767,2.874a.583.583,0,0,0,.525-.035l5.578-3.282,1.848.758Z" transform="translate(0 -37.989)"/></g></g></g></svg>