<svg xmlns="http://www.w3.org/2000/svg" width="24" height="24" viewBox="0 0 24 24"><defs><style>.a{fill:none;}.b{fill:#8d6c61;}.b,.c{fill-rule:evenodd;}.c{fill:#ac968e;}</style></defs><rect class="a" width="24" height="24"/><path class="b" d="M18,2h2a3,3,0,0,1,3,3V19a3,3,0,0,1-3,3H18Z"/><path class="c" d="M5,2H17a3,3,0,0,1,3,3V19a3,3,0,0,1-3,3H5a1,1,0,0,1-1-1V3A1,1,0,0,1,5,2Zm7,9a2,2,0,1,0-2-2A2,2,0,0,0,12,11ZM7,16.5c-.012.162.264.5.4.5h9.177A.417.417,0,0,0,17,16.5c-.163-3.067-2.348-4.5-5.008-4.5A4.648,4.648,0,0,0,7,16.5Z"/></svg>