<svg xmlns="http://www.w3.org/2000/svg" width="24" height="24" viewBox="0 0 24 24"><defs><style>.a{fill:none;}.b{fill:#8d6c61;}.b,.c{fill-rule:evenodd;}.c{fill:#ac968e;}</style></defs><rect class="a" width="24" height="24"/><path class="b" d="M3.515,18.657l9.9-9.9a1,1,0,0,1,1.414,0l1.414,1.414a1,1,0,0,1,0,1.414l-9.9,9.9a1,1,0,0,1-1.414,0L3.515,20.071A1,1,0,0,1,3.515,18.657Z"/><path class="c" d="M9.879,6.636,13.414,3.1a1,1,0,0,1,1.414,0L21.9,10.172a1,1,0,0,1,0,1.414l-3.536,3.536a1,1,0,0,1-1.414,0L9.879,8.05A1,1,0,0,1,9.879,6.636Z"/><path class="b" d="M17.3,4.868l.707-.707a.5.5,0,0,1,.707,0l2.121,2.121a.5.5,0,0,1,0,.707l-.707.707a.5.5,0,0,1-.707,0L17.3,5.575A.5.5,0,0,1,17.3,4.868Z"/></svg>